# xmcd
#
# Track frame offsets:
#	150
#	15675
#	30225
#	46800
#	78600
#	95925
#	114750
#	135150
#	149400
#	164250
#	178875
#	198375
#	214500
#	231525
#	256875
#	277575
#	302175
#	322725
#	338250
#
# Disc length: 4706 seconds
#
# Revision: 1
# Processed by: cddbd v1.5.1PL2 Copyright (c) Steve Scherf et al.
# Submitted via: audiograbber 1.83.01
#
DISCID=f6126013
DTITLE=Various Artist - Tanecni Liga 85
DYEAR=2005
DGENRE=Pop
TTITLE0=Duncan and Wilde - I Just Died (Radio Edit)
TTITLE1=Daddy Yankee - Gasolina (Album Version)
TTITLE2=The Black Eyed Peas - Don't Lie (Album Version)
TTITLE3=Global Deejays - Stars On 45 (Jerry Romero and Denis The Menance Stars On
TTITLE3=33 RMX)
TTITLE4=Paul Van Dyk feat. Wayne Jackson - The Other Side (Radio Mix)
TTITLE5=t.A.T.u. - All About Us (Dave Aude Vocal Edit)
TTITLE6=Karma - Zadovoljna (Album Version)
TTITLE7=Master Blaster - Since You've Been Gone (Videoedit)
TTITLE8=Hypertrophy - Just Come Back 2 Me 2005 (New Radio)
TTITLE9=Kinkdome Kome feat. Nelo - Nowhere (D.O.N.S. Radio)
TTITLE10=Luca Noise - Moonlight Shadow (Gigi Dag and Luca Noise Trip)
TTITLE11=John Smith and Mark Wilcox feat. Jacley - Love Changes (Everything) (Rad
TTITLE11=io Edit)
TTITLE12=Swen G. feat. Inusa - Morning Light (Vocal Radio Edit)
TTITLE13=Sunsetproject - Summer Lovin' (Radio Extended)
TTITLE14=Akcent - Kylie (Black Sea Remix)
TTITLE15=Officina Emotiva - Like A Prayer (Gigi Dag and Luca Noise Trip)
TTITLE16=Pussycat Dolls feat. Busta Rhytmes - Don't Cha
TTITLE17=Lobo - Ty si moja laska (Radio Edit)
TTITLE18=Petr Zverina feat. Style - Petr Zverina z Vaclavaku
EXTD=
EXTT0=
EXTT1=
EXTT2=
EXTT3=
EXTT4=
EXTT5=
EXTT6=
EXTT7=
EXTT8=
EXTT9=
EXTT10=
EXTT11=
EXTT12=
EXTT13=
EXTT14=
EXTT15=
EXTT16=
EXTT17=
EXTT18=
PLAYORDER=
